HIERARCHY
ROOT Hips
{
 OFFSET 0.000000 0.000000 0.000000
 CHANNELS 6 Xposition Yposition Zposition Yrotation Xrotation Zrotation
 JOINT Chest
 {
  OFFSET 0.000000 9.585900 0.002600
  CHANNELS 3 Yrotation Xrotation Zrotation
  JOINT Chest2
  {
   OFFSET 0.000000 9.601200 -0.005300
   CHANNELS 3 Yrotation Xrotation Zrotation
   JOINT Chest3
   {
    OFFSET 0.000000 9.561800 0.000000
    CHANNELS 3 Yrotation Xrotation Zrotation
    JOINT Chest4
    {
     OFFSET 0.000000 9.552100 0.000000
     CHANNELS 3 Yrotation Xrotation Zrotation
     JOINT Neck
     {
      OFFSET 0.000000 14.453000 0.000000
      CHANNELS 3 Yrotation Xrotation Zrotation
      JOINT Head
      {
       OFFSET 0.000000 8.936500 -0.011300
       CHANNELS 3 Yrotation Xrotation Zrotation
       End Site
       {
        OFFSET 0.000000 17.073600 -0.006000
       }
      }
     }
     JOINT RightCollar
     {
      OFFSET -2.921100 9.558500 0.000000
      CHANNELS 3 Yrotation Xrotation Zrotation
      JOINT RightShoulder
      {
       OFFSET -13.519700 0.000000 0.000000
       CHANNELS 3 Yrotation Xrotation Zrotation
       JOINT RightElbow
       {
        OFFSET 0.000000 -29.696600 0.000000
        CHANNELS 3 Yrotation Xrotation Zrotation
        JOINT RightWrist
        {
         OFFSET 0.000000 -24.004700 0.000000
         CHANNELS 3 Yrotation Xrotation Zrotation
         End Site
         {
          OFFSET 0.000000 -17.728500 0.000000
         }
        }
       }
      }
     }
     JOINT LeftCollar
     {
      OFFSET 2.921100 9.558500 0.000000
      CHANNELS 3 Yrotation Xrotation Zrotation
      JOINT LeftShoulder
      {
       OFFSET 13.519700 0.000000 0.000000
       CHANNELS 3 Yrotation Xrotation Zrotation
       JOINT LeftElbow
       {
        OFFSET 0.000000 -29.696600 0.000000
        CHANNELS 3 Yrotation Xrotation Zrotation
        JOINT LeftWrist
        {
         OFFSET 0.000000 -24.004700 0.000000
         CHANNELS 3 Yrotation Xrotation Zrotation
         End Site
         {
          OFFSET 0.000000 -17.728500 0.000000
         }
        }
       }
      }
     }
    }
   }
  }
 }
 JOINT RightHip
 {
  OFFSET -7.771700 -0.012900 -0.001300
  CHANNELS 3 Yrotation Xrotation Zrotation
  JOINT RightKnee
  {
   OFFSET 0.000000 -40.869800 0.001200
   CHANNELS 3 Yrotation Xrotation Zrotation
   JOINT RightAnkle
   {
    OFFSET 0.000000 -39.717900 0.002100
    CHANNELS 3 Yrotation Xrotation Zrotation
    JOINT RightToe
    {
     OFFSET 0.000000 -4.965400 11.033500
     CHANNELS 3 Yrotation Xrotation Zrotation
     End Site
     {
      OFFSET 0.000000 -1.423100 5.872300
     }
    }
   }
  }
 }
 JOINT LeftHip
 {
  OFFSET 7.771700 -0.012900 -0.001300
  CHANNELS 3 Yrotation Xrotation Zrotation
  JOINT LeftKnee
  {
   OFFSET 0.000000 -40.869800 0.001200
   CHANNELS 3 Yrotation Xrotation Zrotation
   JOINT LeftAnkle
   {
    OFFSET 0.000000 -39.717900 0.002100
    CHANNELS 3 Yrotation Xrotation Zrotation
    JOINT LeftToe
    {
     OFFSET 0.000000 -4.965400 11.033500
     CHANNELS 3 Yrotation Xrotation Zrotation
     End Site
     {
      OFFSET 0.000000 -1.423100 5.872300
     }
    }
   }
  }
 }
}
MOTION
Frames: 5
Frame Time: 0.008333
0.000000 85.388000 0.000000 0.000000 -5.767877 0.000000 0.000000 11.653817 0.000000 0.000000 -5.885947 0.000000 0.000000 -0.000000 0.000000 0.000000 -0.000000 0.000000 0.000000 12.528835 0.000000 0.000000 0.711642 0.000000 0.000000 -0.000000 0.000000 0.000000 0.000000 -90.000000 0.000000 -2.309062 0.000000 0.000000 2.309062 0.000000 0.000000 -0.000000 0.000000 0.000000 -0.000000 90.000000 0.000000 -2.309062 0.000000 0.000000 2.309062 0.000000 0.000000 8.520406 0.000000 0.000000 1.905762 0.000000 -0.000000 -4.658285 0.000000 0.000000 -0.000000 0.000000 0.000000 8.520406 0.000000 0.000000 1.905762 0.000000 -0.000000 -4.658285 0.000000 0.000000 -0.000000 0.000000
-22.713527 51.560237 28.492078 179.403033 -19.821744 0.036214 -1.053445 12.449860 1.614684 -0.091768 0.953819 0.177030 -0.165127 1.617508 0.298897 -0.939435 11.304093 2.016647 -5.364983 18.998617 -1.149068 -5.476890 -5.495346 -0.000298 5.521224 16.192265 13.358167 26.695848 -2.932234 -29.979047 119.396366 -69.055258 -156.774204 1.161639 8.301826 2.538254 -4.379112 14.918272 -15.931947 -28.826899 2.143631 29.491036 -121.828369 -77.067366 160.501807 13.112478 9.660269 -13.951385 -11.493896 -63.014947 4.274561 -69.251824 82.244109 -78.058577 -3.492211 -5.494144 8.150282 0.271083 -0.762329 0.110804 11.640489 -60.825071 -9.714131 43.525418 85.933269 49.237056 -2.763925 -13.443569 1.137008 0.171940 0.478798 0.077886
-22.712418 51.560422 28.492997 179.397749 -19.820968 0.038395 -1.042583 12.454463 1.618239 -0.094179 0.951008 0.176544 -0.162362 1.618516 0.297178 -0.935906 11.304198 2.018901 -5.365665 19.005078 -1.146791 -5.487739 -5.497873 0.004439 5.513244 16.195197 13.362129 26.687927 -2.932521 -29.979700 119.418655 -69.060793 -156.789089 1.165133 8.304384 2.538343 -4.388735 14.918566 -15.933293 -28.817911 2.144402 29.478240 -121.820241 -77.059715 160.487472 13.120144 9.661554 -13.952304 -11.491084 -63.016971 4.273723 -69.232501 82.250259 -78.038044 -3.485886 -5.491598 8.152256 0.265133 -0.766955 0.107960 11.643363 -60.827523 -9.709375 43.504677 85.936619 49.214915 -2.766561 -13.439805 1.135733 0.175850 0.473769 0.079481
-22.711297 51.560358 28.495029 179.394045 -19.813904 0.040142 -1.036819 12.448921 1.620826 -0.094494 0.951844 0.177536 -0.160902 1.619254 0.296044 -0.937421 11.302325 2.017720 -5.365638 19.013243 -1.142812 -5.493190 -5.500504 0.005404 5.525730 16.203522 13.369860 26.669628 -2.942737 -29.981260 119.425727 -69.069593 -156.787681 1.170837 8.303573 2.535628 -4.382504 14.923338 -15.933633 -28.802415 2.147102 29.456473 -121.838982 -77.037806 160.486359 13.120075 9.668032 -13.956957 -11.493009 -63.023882 4.276993 -69.195428 82.251364 -78.000194 -3.478167 -5.489527 8.152892 0.261460 -0.768221 0.106213 11.632429 -60.835268 -9.698254 43.491927 85.933680 49.198309 -2.770068 -13.439323 1.129929 0.177461 0.472896 0.080611
-22.710564 51.560791 28.496044 179.398701 -19.813626 0.041001 -1.040854 12.449107 1.619520 -0.094934 0.952479 0.178421 -0.157475 1.621177 0.298646 -0.935548 11.304348 2.020232 -5.372868 19.015529 -1.141910 -5.509753 -5.488312 0.015310 5.522844 16.200197 13.364226 26.661862 -2.934347 -29.963244 119.424044 -69.054714 -156.788514 1.168769 8.311140 2.532548 -4.370548 14.925981 -15.939415 -28.812546 2.148562 29.450414 -121.822839 -77.039400 160.460012 13.121748 9.664433 -13.955674 -11.499588 -63.023904 4.276878 -69.191726 82.248299 -77.996105 -3.473371 -5.492823 8.150085 0.265356 -0.766850 0.107725 11.622930 -60.835112 -9.695796 43.527400 85.925351 49.232557 -2.776021 -13.438290 1.125889 0.176358 0.473796 0.080839
